{"title":"Con Air-720p MP4 AAC x264 BRRip 1997-CC","uid":7136938,"size":2314850881,"categoryP":"video","categoryS":"hd___movies","magnet":"?xt=urn:btih:d6adbf8358e68f89c0cb72e9bbbef22e481ec0f6&amp;dn=Con+Air-720p+MP4+AAC+x264+BRRip+1997-CC&amp;tr=udp%3A%2F%2Ftracker.openbittorrent.com%3A80&amp;tr=udp%3A%2F%2Fopen.demonii.com%3A1337&amp;tr=udp%3A%2F%2Ftracker.coppersurfer.tk%3A6969&amp;tr=udp%3A%2F%2Fexodus.desync.com%3A6969","seeders":1,"leechers":0,"uploader":"Caveman44","files":-1,"time":1332880854,"description":"Source: Con Air 1997 720p BluRay DTS x264-ESiR\n\nSubs: Arabic, Brazilian, Croatian, Danish, Dutch, English, French, Greek, Hebrew, Hungarian, Persian, Portuguese, Romanian, Servian, Slovenian, Spanish, Swedish and Vietnamese.\n\nSample and Screens included.\n\nGeneral\nComplete name                    : Con Air-720p MP4 AAC x264 BRRip 1997-CC.mp4\nFormat                           : MPEG-4\nFormat profile                   : Base Media\nCodec ID                         : isom\nFile size                        : 2.13 GiB\nDuration                         : 1h 55mn\nOverall bit rate                 : 2 639 Kbps\nEncoded date                     : UTC 2012-03-25 19:01:27\n\n\nVideo\nID                               : 1\nFormat                           : AVC\nFormat/Info                      : Advanced Video Codec\nFormat profile                   : &lt;a class=&quot;__cf_email__&quot; href=&quot;/cdn-cgi/l/email-protection&quot; data-cfemail=&quot;0d45646a654d413e233c&quot;&gt;[email&amp;#160;protected]&lt;/a&gt;&lt;script cf-hash='f9e31' type=&quot;text/javascript&quot;&gt;\n/* &lt;![CDATA[ */!function(){try{var t=&quot;currentScript&quot;in document?document.currentScript:function(){for(var t=document.getElementsByTagName(&quot;script&quot;),e=t.length;e--;)if(t[e].getAttribute(&quot;cf-hash&quot;))return t[e]}();if(t&amp;&amp;t.previousSibling){var e,r,n,i,c=t.previousSibling,a=c.getAttribute(&quot;data-cfemail&quot;);if(a){for(e=&quot;&quot;,r=parseInt(a.substr(0,2),16),n=2;a.length-n;n+=2)i=parseInt(a.substr(n,2),16)^r,e+=String.fromCharCode(i);e=document.createTextNode(e),c.parentNode.replaceChild(e,c)}}}catch(u){}}();/* ]]&gt; */&lt;/script&gt;\nFormat settings, CABAC           : Yes\nFormat settings, ReFrames        : 5 frames\nCodec ID                         : avc1\nCodec ID/Info                    : Advanced Video Coding\nDuration                         : 1h 55mn\nBit rate mode                    : Variable\nBit rate                         : 2 251 Kbps\nNominal bit rate                 : 2 265 Kbps\nMaximum bit rate                 : 10.7 Mbps\nWidth                            : 1 280 pixels\nHeight                           : 544 pixels\nDisplay aspect ratio             : 2.35:1\nFrame rate mode                  : Variable\nFrame rate                       : 23.976 fps\nMinimum frame rate               : 19.048 fps\nMaximum frame rate               : 24.390 fps\nResolution                       : 24 bits\nColorimetry                      : 4:2:0\nScan type                        : Progressive\nBits/(Pixel*Frame)               : 0.135\nStream size                      : 1.81 GiB (85%)\nWriting library                  : x264 core 112\n\nAudio\nID                               : 2\nFormat                           : AAC\nFormat/Info                      : Advanced Audio Codec\nFormat version                   : Version 4\nFormat profile                   : LC\nFormat settings, SBR             : No\nCodec ID                         : 40\nDuration                         : 1h 55mn\nBit rate mode                    : Variable\nBit rate                         : 384 Kbps\nMaximum bit rate                 : 486 Kbps\nChannel(s)                       : 6 channels\nChannel positions                : Front: L C R, Rear: L R, LFE\nSampling rate                    : 48.0 KHz\nResolution                       : 16 bits\nStream size                      : 317 MiB (15%)\nLanguage                         : English\n","torrent":{"xt":"urn:btih:d6adbf8358e68f89c0cb72e9bbbef22e481ec0f6","amp;dn":"Con+Air-720p+MP4+AAC+x264+BRRip+1997-CC","amp;tr":["udp%3A%2F%2Ftracker.openbittorrent.com%3A80","udp%3A%2F%2Fopen.demonii.com%3A1337","udp%3A%2F%2Ftracker.coppersurfer.tk%3A6969","udp%3A%2F%2Fexodus.desync.com%3A6969"],"infoHash":"d6adbf8358e68f89c0cb72e9bbbef22e481ec0f6","infoHashBuffer":{"type":"Buffer","data":[214,173,191,131,88,230,143,137,192,203,114,233,187,190,242,46,72,30,192,246]},"announce":[],"urlList":[]}}